<svg width="61" height="59" viewBox="0 0 61 59" fill="none" xmlns="http://www.w3.org/2000/svg">
<path d="M38.6376 1.76106C38.7042 2.30106 39.1076 2.51772 39.8476 2.41105C40.6276 2.30438 41.3576 2.51105 42.0376 3.03105C43.7776 4.36438 45.9843 5.50105 48.6576 6.44105C49.0909 6.59438 49.4342 7.0177 49.6876 7.71104C50.5776 10.111 53.2675 12.771 55.1175 14.901C55.9575 15.861 56.2076 17.991 57.3376 19.001C57.8109 19.4277 58.0976 19.9611 58.1976 20.6011C58.2088 20.6759 58.2429 20.745 58.2954 20.7991C58.3479 20.8532 58.4161 20.8898 58.4911 20.9039C58.5661 20.918 58.6443 20.9091 58.7151 20.8782C58.786 20.8473 58.8461 20.796 58.8876 20.7311C59.1076 20.3711 59.1976 19.7944 59.1576 19.001C61.4064 26.3258 60.7844 34.2366 57.4176 41.1311C55.0763 45.9316 51.5035 50.0262 47.0629 52.9983C42.6224 55.9704 37.4726 57.7137 32.1376 58.051C25.5151 58.466 18.9405 56.6915 13.4276 53.001C8.716 49.8511 4.98414 45.4401 2.65755 40.271C-0.140087 34.0413 -0.749736 27.0495 0.927573 20.431C0.840907 21.3044 0.884245 22.0744 1.05758 22.741C1.09193 22.8831 1.16988 23.0109 1.28054 23.1065C1.3912 23.202 1.52899 23.2605 1.67458 23.2737C1.82017 23.2869 1.96626 23.2543 2.09234 23.1802C2.21841 23.1062 2.31815 22.9946 2.37755 22.861C4.49089 18.301 6.59091 14.3744 8.67757 11.081C10.3576 8.42103 12.4476 6.27436 14.9476 4.64103C17.4809 2.9877 20.1609 1.58437 22.9876 0.431039C24.0632 -0.00560537 25.2397 -0.11351 26.3676 0.121042C27.8809 0.434375 29.3509 0.557703 30.7776 0.491037C31.1696 0.471135 31.5656 0.498004 31.9576 0.571054L38.6376 1.76106Z" fill="#3C55B2"/>
</svg>
