<svg width="115" height="57" viewBox="0 0 115 57" fill="none" xmlns="http://www.w3.org/2000/svg">
<path d="M114.68 43.2161C112.527 40.0895 110.613 36.8428 108.94 33.4761C107.167 29.9161 105.693 27.2861 104.52 25.5861C102.173 22.1728 100.303 19.7861 98.91 18.4261C79.75 -0.253891 53.55 -2.83389 29.86 8.61611C29.58 8.75611 28.75 9.53277 27.37 10.9461C27.21 11.1128 26.7267 11.3094 25.92 11.5361C25.6037 11.6265 25.3308 11.825 25.15 12.0961C24.0567 13.7161 22.9 14.6661 21.68 14.9461C21.5123 14.9864 21.3563 15.0652 21.2244 15.1763C21.0925 15.2874 20.9882 15.4277 20.92 15.5861C19.58 18.6561 16.33 20.1461 14.73 22.5661C14.07 23.5594 12.9767 25.0028 11.45 26.8961C11.2513 27.1412 11.0926 27.4181 10.98 27.7161C10.48 28.9761 9.13 31.5561 6.93 35.4561C5.69 37.6494 4.38333 40.7661 3.01 44.8061C2.92353 45.0788 2.86327 45.3567 2.83001 45.6361C2.67001 47.2361 2.38334 48.4694 1.97001 49.3361C1.66597 49.9756 1.59517 50.6977 1.76999 51.3761C2.08999 52.6828 2.02333 54.1661 1.57 55.8261C1.51752 56.0123 1.39936 56.1732 1.23737 56.279C1.07539 56.3847 0.880555 56.4282 0.68897 56.4014C0.497386 56.3745 0.322023 56.2791 0.195349 56.1329C0.0686739 55.9867 -0.000718529 55.7996 5.61078e-06 55.6061L0.0199946 53.4361C0.929995 46.7761 1.3 41.6761 4.51 34.8261C6.85 29.8194 9.85333 25.1128 13.52 20.7061C28.75 2.38611 55.69 -5.05388 77.99 3.59612C84.5367 6.13612 89.8433 8.98277 93.91 12.1361C103.757 19.7628 110.68 30.1228 114.68 43.2161Z" fill="#2A3975"/>
</svg>
